<?xml version="1.0" encoding="UTF-8"?>
<svg xmlns="http://www.w3.org/2000/svg" xmlns:xlink="http://www.w3.org/1999/xlink" width="95pt" height="17pt" viewBox="0 0 95 17" version="1.1">
<defs>
<linearGradient id="linear0" gradientUnits="userSpaceOnUse" x1="0" y1="0" x2="1" y2="0" gradientTransform="matrix(86.035515,7.179558,-40.11902,15.396612,0.0351563,-0.000000000000000658)">
<stop offset="0" style="stop-color:rgb(90.196078%,20.784314%,0%);stop-opacity:1;"/>
<stop offset="1" style="stop-color:rgb(100%,76.470588%,8.627451%);stop-opacity:1;"/>
</linearGradient>
</defs>
<g id="surface1">
<path style=" stroke:none;fill-rule:nonzero;fill:url(#linear0);" d="M 3.015625 0 L 3.015625 16.679688 L 0.0351562 16.679688 L 0.0351562 2.433594 C 0.0351562 1.675781 0.304688 1.078125 0.847656 0.648438 C 1.378906 0.203125 2.101562 -0.0117188 3.015625 0 Z M 11.347656 4.050781 C 12.585938 4.050781 13.699219 4.359375 14.683594 4.96875 C 15.652344 5.570312 16.414062 6.335938 16.96875 7.269531 C 17.519531 8.210938 17.816406 9.253906 17.847656 10.398438 C 17.894531 11.546875 17.605469 12.664062 16.984375 13.753906 C 16.464844 14.660156 15.789062 15.386719 14.953125 15.929688 C 14.105469 16.464844 13.207031 16.800781 12.261719 16.933594 C 11.3125 17.070312 10.363281 16.992188 9.414062 16.695312 C 8.457031 16.402344 7.597656 15.875 6.839844 15.113281 C 5.984375 14.242188 5.414062 13.230469 5.132812 12.085938 C 4.847656 10.9375 4.871094 9.796875 5.199219 8.664062 C 5.34375 8.199219 5.582031 7.8125 5.910156 7.507812 C 6.226562 7.210938 6.59375 6.988281 7.011719 6.84375 C 7.417969 6.707031 7.839844 6.644531 8.28125 6.65625 C 8.722656 6.667969 9.132812 6.757812 9.515625 6.925781 C 9.902344 7.097656 10.222656 7.335938 10.480469 7.640625 C 10.742188 7.949219 10.894531 8.328125 10.9375 8.78125 C 10.703125 8.601562 10.421875 8.503906 10.09375 8.492188 C 9.753906 8.492188 9.433594 8.566406 9.128906 8.714844 C 8.824219 8.863281 8.5625 9.09375 8.347656 9.414062 C 8.132812 9.71875 8.027344 10.105469 8.027344 10.570312 C 8.027344 11.363281 8.191406 12.023438 8.519531 12.542969 C 8.855469 13.066406 9.273438 13.457031 9.769531 13.71875 C 10.269531 13.980469 10.804688 14.109375 11.378906 14.109375 C 11.957031 14.109375 12.492188 13.972656 12.988281 13.703125 C 13.484375 13.441406 13.902344 13.042969 14.242188 12.511719 C 14.570312 11.976562 14.734375 11.3125 14.734375 10.519531 C 14.734375 9.894531 14.621094 9.34375 14.394531 8.867188 C 14.179688 8.390625 13.886719 8 13.511719 7.695312 C 13.140625 7.386719 12.710938 7.171875 12.226562 7.046875 C 11.730469 6.933594 11.203125 6.925781 10.652344 7.03125 C 10.414062 6.746094 10.125 6.523438 9.789062 6.367188 C 9.449219 6.195312 9.082031 6.082031 8.6875 6.027344 C 8.292969 5.96875 7.898438 5.972656 7.5 6.042969 C 7.105469 6.121094 6.734375 6.265625 6.382812 6.46875 C 7.015625 5.707031 7.75 5.117188 8.585938 4.699219 C 9.433594 4.265625 10.351562 4.050781 11.347656 4.050781 Z M 23.285156 16.679688 L 18.050781 4.375 L 21.203125 4.375 L 24.285156 11.640625 L 26.601562 6.246094 C 26.761719 5.894531 26.960938 5.578125 27.195312 5.292969 C 27.433594 5 27.710938 4.753906 28.027344 4.5625 C 28.34375 4.367188 28.714844 4.242188 29.144531 4.1875 C 29.5625 4.128906 30.03125 4.160156 30.550781 4.273438 L 25.265625 16.679688 Z M 38.542969 8.136719 C 38.40625 7.828125 38.230469 7.585938 38.015625 7.402344 C 37.792969 7.222656 37.546875 7.085938 37.289062 6.996094 C 37.027344 6.894531 36.773438 6.84375 36.527344 6.84375 C 36.289062 6.832031 36.09375 6.855469 35.933594 6.910156 C 35.640625 7.011719 35.453125 7.175781 35.375 7.402344 C 35.285156 7.632812 35.324219 7.851562 35.492188 8.066406 C 35.640625 8.226562 35.867188 8.378906 36.171875 8.527344 C 36.488281 8.675781 36.832031 8.839844 37.203125 9.019531 C 37.589844 9.203125 37.976562 9.414062 38.371094 9.652344 C 38.777344 9.878906 39.152344 10.148438 39.488281 10.46875 C 39.816406 10.785156 40.089844 11.160156 40.304688 11.589844 C 40.515625 12.023438 40.625 12.527344 40.625 13.105469 C 40.625 13.796875 40.472656 14.398438 40.167969 14.910156 C 39.875 15.433594 39.480469 15.851562 38.980469 16.167969 C 38.472656 16.488281 37.910156 16.703125 37.289062 16.816406 C 36.667969 16.941406 36.035156 16.953125 35.390625 16.851562 C 34.75 16.757812 34.128906 16.542969 33.53125 16.203125 C 32.929688 15.863281 32.410156 15.398438 31.972656 14.808594 L 33.867188 12.75 C 34.261719 13.226562 34.675781 13.570312 35.105469 13.785156 C 35.542969 13.992188 35.949219 14.105469 36.324219 14.128906 C 36.695312 14.148438 37.007812 14.09375 37.253906 13.957031 C 37.503906 13.820312 37.65625 13.640625 37.710938 13.414062 C 37.769531 13.183594 37.699219 12.929688 37.507812 12.644531 C 37.328125 12.375 36.96875 12.101562 36.425781 11.828125 C 35.917969 11.570312 35.421875 11.308594 34.933594 11.046875 C 34.460938 10.773438 34.039062 10.46875 33.664062 10.128906 C 33.292969 9.796875 32.992188 9.429688 32.765625 9.019531 C 32.53125 8.601562 32.410156 8.113281 32.410156 7.558594 C 32.410156 6.988281 32.53125 6.484375 32.765625 6.042969 C 33.003906 5.589844 33.320312 5.214844 33.714844 4.917969 C 34.109375 4.613281 34.5625 4.390625 35.070312 4.253906 C 35.578125 4.109375 36.101562 4.039062 36.644531 4.050781 C 37.558594 4.109375 38.253906 4.3125 38.726562 4.664062 C 39.214844 5.027344 39.519531 5.433594 39.644531 5.890625 C 39.753906 6.332031 39.714844 6.769531 39.523438 7.199219 C 39.320312 7.632812 38.992188 7.941406 38.542969 8.136719 Z M 45.5 0 L 45.5 6.042969 C 45.625 5.769531 45.816406 5.53125 46.078125 5.328125 C 46.324219 5.113281 46.601562 4.941406 46.90625 4.816406 C 47.222656 4.679688 47.539062 4.574219 47.855469 4.492188 C 48.183594 4.414062 48.488281 4.363281 48.769531 4.339844 C 49.355469 4.304688 49.9375 4.386719 50.515625 4.578125 C 51.078125 4.773438 51.597656 5.113281 52.070312 5.601562 C 52.773438 6.335938 53.121094 7.386719 53.121094 8.75 L 53.121094 16.679688 L 50.160156 16.679688 C 50.160156 16.429688 50.160156 16.078125 50.160156 15.625 C 50.171875 15.171875 50.175781 14.675781 50.175781 14.144531 C 50.175781 13.609375 50.175781 13.054688 50.175781 12.476562 C 50.175781 11.898438 50.171875 11.351562 50.160156 10.84375 C 50.136719 10.320312 50.109375 9.859375 50.074219 9.464844 C 50.050781 9.066406 50.011719 8.773438 49.957031 8.578125 C 49.832031 8.101562 49.605469 7.738281 49.277344 7.488281 C 48.9375 7.238281 48.566406 7.113281 48.160156 7.113281 C 47.617188 7.113281 47.199219 7.257812 46.90625 7.539062 C 46.625 7.824219 46.484375 8.199219 46.484375 8.664062 C 46.304688 8.605469 46.117188 8.488281 45.925781 8.304688 C 45.722656 8.113281 45.582031 7.902344 45.5 7.675781 L 45.5 16.679688 L 42.519531 16.679688 L 42.519531 2.433594 C 42.519531 1.675781 42.785156 1.078125 43.316406 0.648438 C 43.859375 0.203125 44.585938 -0.0117188 45.5 0 Z M 64.636719 16.679688 L 64.636719 15.335938 C 64.039062 15.914062 63.382812 16.339844 62.671875 16.613281 C 61.972656 16.882812 61.265625 17.007812 60.554688 16.988281 C 59.84375 16.964844 59.15625 16.800781 58.488281 16.492188 C 57.8125 16.199219 57.21875 15.765625 56.710938 15.199219 C 56.191406 14.632812 55.78125 13.957031 55.476562 13.175781 C 55.171875 12.390625 55.019531 11.496094 55.019531 10.484375 C 55.019531 9.53125 55.183594 8.652344 55.511719 7.847656 C 55.835938 7.042969 56.28125 6.347656 56.847656 5.769531 C 57.410156 5.203125 58.050781 4.765625 58.761719 4.460938 C 59.484375 4.140625 60.234375 4 61.011719 4.035156 C 61.769531 4.066406 62.378906 4.238281 62.84375 4.542969 C 63.292969 4.851562 63.625 5.214844 63.839844 5.632812 C 64.054688 6.042969 64.167969 6.457031 64.179688 6.875 C 64.179688 7.296875 64.113281 7.636719 63.976562 7.898438 C 63.707031 7.5 63.328125 7.234375 62.84375 7.097656 C 62.34375 6.960938 61.871094 6.894531 61.417969 6.894531 C 60.6875 6.894531 60.078125 7.074219 59.589844 7.4375 C 59.09375 7.789062 58.722656 8.238281 58.472656 8.78125 C 58.226562 9.316406 58.09375 9.902344 58.082031 10.535156 C 58.074219 11.160156 58.191406 11.738281 58.4375 12.273438 C 58.6875 12.816406 59.058594 13.269531 59.558594 13.632812 C 60.054688 13.984375 60.675781 14.160156 61.417969 14.160156 C 62.050781 14.160156 62.570312 14.019531 62.976562 13.734375 C 63.382812 13.453125 63.710938 13.082031 63.960938 12.628906 C 64.207031 12.175781 64.382812 11.664062 64.484375 11.097656 C 64.585938 10.53125 64.636719 9.96875 64.636719 9.414062 L 64.636719 4.339844 L 67.71875 4.339844 L 67.71875 16.679688 Z M 79.640625 8.917969 C 79.515625 8.476562 79.273438 8.101562 78.914062 7.796875 C 78.5625 7.5 78.152344 7.273438 77.675781 7.113281 C 77.203125 6.96875 76.695312 6.898438 76.152344 6.910156 C 75.621094 6.910156 75.113281 7.019531 74.628906 7.234375 C 74.144531 7.4375 73.71875 7.746094 73.359375 8.152344 C 72.996094 8.550781 72.742188 9.0625 72.597656 9.683594 C 72.496094 10.195312 72.484375 10.710938 72.5625 11.234375 C 72.640625 11.753906 72.820312 12.226562 73.105469 12.644531 C 73.386719 13.066406 73.769531 13.414062 74.253906 13.683594 C 74.730469 13.957031 75.3125 14.09375 76 14.09375 C 77.277344 14.09375 78.269531 13.621094 78.980469 12.679688 L 81.234375 14.332031 C 80.035156 16.035156 78.304688 16.882812 76.035156 16.882812 C 74.847656 16.882812 73.828125 16.65625 72.96875 16.203125 C 72.109375 15.75 71.410156 15.160156 70.867188 14.433594 C 70.339844 13.707031 69.976562 12.894531 69.785156 12 C 69.59375 11.101562 69.570312 10.21875 69.71875 9.34375 C 69.875 8.460938 70.203125 7.625 70.699219 6.84375 C 71.207031 6.046875 71.894531 5.40625 72.765625 4.917969 C 73.421875 4.554688 74.113281 4.304688 74.847656 4.171875 C 75.582031 4.035156 76.320312 4.023438 77.066406 4.136719 C 78.039062 4.273438 78.800781 4.5625 79.351562 5.003906 C 79.894531 5.457031 80.25 5.941406 80.417969 6.449219 C 80.601562 6.972656 80.617188 7.464844 80.46875 7.933594 C 80.3125 8.398438 80.035156 8.726562 79.640625 8.917969 Z M 86.144531 0 L 86.144531 9.617188 L 88.71875 6.722656 C 89.246094 6.132812 89.761719 5.65625 90.257812 5.292969 C 90.765625 4.929688 91.375 4.726562 92.085938 4.679688 C 92.4375 4.660156 92.769531 4.6875 93.085938 4.765625 C 93.402344 4.835938 93.664062 4.957031 93.867188 5.140625 C 94.070312 5.320312 94.203125 5.554688 94.273438 5.839844 C 94.339844 6.109375 94.300781 6.445312 94.152344 6.84375 C 94.085938 6.730469 93.972656 6.65625 93.816406 6.621094 C 93.644531 6.574219 93.449219 6.582031 93.222656 6.636719 C 92.984375 6.683594 92.738281 6.78125 92.476562 6.925781 C 92.207031 7.074219 91.941406 7.300781 91.679688 7.609375 L 89.175781 10.398438 L 94.964844 16.679688 L 91.207031 16.679688 L 86.144531 11.132812 L 86.144531 16.679688 L 83.128906 16.679688 L 83.128906 2.433594 C 83.128906 1.675781 83.398438 1.078125 83.941406 0.648438 C 84.496094 0.203125 85.230469 -0.0117188 86.144531 0 Z M 86.144531 0 "/>
</g>
</svg>
