<svg data-v-d3f97b9e="" xmlns="http://www.w3.org/2000/svg" viewBox="0 0 336.7592497819223 60"><!----><!----><linearGradient data-v-d3f97b9e="" gradientTransform="rotate(25)" id="21065b22-c23a-4277-880e-e83c881ce2ba" x1="0%" y1="0%" x2="100%" y2="0%"><stop data-v-d3f97b9e="" offset="0%" style="stop-color: rgb(230, 53, 0); stop-opacity: 1;"></stop><stop data-v-d3f97b9e="" offset="100%" style="stop-color: rgb(255, 195, 22); stop-opacity: 1;"></stop></linearGradient><g data-v-d3f97b9e="" id="cd2cf477-e422-44c5-8763-f7774bc4293f" fill="url(#21065b22-c23a-4277-880e-e83c881ce2ba)" transform="matrix(6.00712209146892,0,0,6.00712209146892,-4.2049838304560865,-22.344991487512665)"><path d="M2.46 3.72L2.46 3.72L2.46 13.52L0.70 13.52L0.70 5.15L0.70 5.15Q0.70 4.48 1.18 4.10L1.18 4.10L1.18 4.10Q1.65 3.71 2.46 3.72ZM7.38 6.10L7.38 6.10L7.38 6.10Q8.48 6.10 9.35 6.64L9.35 6.64L9.35 6.64Q10.21 7.17 10.70 7.99L10.70 7.99L10.70 7.99Q11.19 8.82 11.22 9.83L11.22 9.83L11.22 9.83Q11.26 10.84 10.71 11.80L10.71 11.80L10.71 11.80Q10.25 12.60 9.51 13.08L9.51 13.08L9.51 13.08Q8.76 13.55 7.92 13.67L7.92 13.67L7.92 13.67Q7.08 13.79 6.24 13.53L6.24 13.53L6.24 13.53Q5.39 13.27 4.72 12.60L4.72 12.60L4.72 12.60Q3.96 11.83 3.71 10.82L3.71 10.82L3.71 10.82Q3.46 9.81 3.75 8.81L3.75 8.81L3.75 8.81Q3.88 8.40 4.17 8.13L4.17 8.13L4.17 8.13Q4.45 7.87 4.82 7.74L4.82 7.74L4.82 7.74Q5.18 7.62 5.57 7.63L5.57 7.63L5.57 7.63Q5.96 7.64 6.30 7.79L6.30 7.79L6.30 7.79Q6.64 7.94 6.87 8.21L6.87 8.21L6.87 8.21Q7.10 8.48 7.14 8.88L7.14 8.88L7.14 8.88Q6.93 8.72 6.64 8.71L6.64 8.71L6.64 8.71Q6.34 8.71 6.07 8.84L6.07 8.84L6.07 8.84Q5.80 8.97 5.61 9.25L5.61 9.25L5.61 9.25Q5.42 9.52 5.42 9.93L5.42 9.93L5.42 9.93Q5.42 10.63 5.71 11.09L5.71 11.09L5.71 11.09Q6.01 11.55 6.45 11.78L6.45 11.78L6.45 11.78Q6.89 12.01 7.40 12.01L7.40 12.01L7.40 12.01Q7.91 12.01 8.35 11.77L8.35 11.77L8.35 11.77Q8.79 11.54 9.09 11.07L9.09 11.07L9.09 11.07Q9.38 10.60 9.38 9.90L9.38 9.90L9.38 9.90Q9.38 9.35 9.18 8.93L9.18 8.93L9.18 8.93Q8.99 8.51 8.66 8.24L8.66 8.24L8.66 8.24Q8.33 7.97 7.90 7.86L7.90 7.86L7.90 7.86Q7.46 7.76 6.97 7.85L6.97 7.85L6.97 7.85Q6.76 7.60 6.46 7.46L6.46 7.46L6.46 7.46Q6.16 7.31 5.81 7.26L5.81 7.26L5.81 7.26Q5.46 7.21 5.11 7.27L5.11 7.27L5.11 7.27Q4.76 7.34 4.45 7.52L4.45 7.52L4.45 7.52Q5.01 6.85 5.75 6.48L5.75 6.48L5.75 6.48Q6.50 6.10 7.38 6.10ZM14.43 13.52L11.34 6.29L13.20 6.29L15.02 10.56L16.39 7.39L16.39 7.39Q16.53 7.08 16.74 6.83L16.74 6.83L16.74 6.83Q16.95 6.57 17.23 6.40L17.23 6.40L17.23 6.40Q17.51 6.23 17.89 6.18L17.89 6.18L17.89 6.18Q18.26 6.13 18.72 6.23L18.72 6.23L15.60 13.52L14.43 13.52ZM23.44 8.50L23.44 8.50L23.44 8.50Q23.32 8.23 23.13 8.07L23.13 8.07L23.13 8.07Q22.93 7.91 22.70 7.83L22.70 7.83L22.70 7.83Q22.47 7.74 22.25 7.74L22.25 7.74L22.25 7.74Q22.04 7.73 21.90 7.78L21.90 7.78L21.90 7.78Q21.64 7.87 21.57 8.07L21.57 8.07L21.57 8.07Q21.49 8.27 21.64 8.46L21.64 8.46L21.64 8.46Q21.77 8.60 22.04 8.73L22.04 8.73L22.04 8.73Q22.32 8.86 22.65 9.02L22.65 9.02L22.65 9.02Q22.99 9.18 23.34 9.39L23.34 9.39L23.34 9.39Q23.70 9.59 24.00 9.87L24.00 9.87L24.00 9.87Q24.29 10.15 24.48 10.53L24.48 10.53L24.48 10.53Q24.67 10.91 24.67 11.42L24.67 11.42L24.67 11.42Q24.67 12.03 24.40 12.48L24.40 12.48L24.40 12.48Q24.14 12.94 23.70 13.22L23.70 13.22L23.70 13.22Q23.25 13.50 22.70 13.60L22.70 13.60L22.70 13.60Q22.15 13.71 21.58 13.62L21.58 13.62L21.58 13.62Q21.01 13.54 20.48 13.24L20.48 13.24L20.48 13.24Q19.95 12.94 19.56 12.42L19.56 12.42L20.68 11.21L20.68 11.21Q21.03 11.63 21.41 11.82L21.41 11.82L21.41 11.82Q21.80 12.00 22.13 12.02L22.13 12.02L22.13 12.02Q22.46 12.04 22.68 11.92L22.68 11.92L22.68 11.92Q22.90 11.80 22.95 11.60L22.95 11.60L22.95 11.60Q23.00 11.40 22.83 11.15L22.83 11.15L22.83 11.15Q22.67 10.91 22.19 10.67L22.19 10.67L22.19 10.67Q21.74 10.44 21.31 10.21L21.31 10.21L21.31 10.21Q20.89 9.97 20.56 9.67L20.56 9.67L20.56 9.67Q20.23 9.38 20.03 9.02L20.03 9.02L20.03 9.02Q19.82 8.65 19.82 8.16L19.82 8.16L19.82 8.16Q19.82 7.66 20.03 7.27L20.03 7.27L20.03 7.27Q20.24 6.87 20.59 6.61L20.59 6.61L20.59 6.61Q20.94 6.34 21.39 6.22L21.39 6.22L21.39 6.22Q21.84 6.09 22.32 6.10L22.32 6.10L22.32 6.10Q23.13 6.15 23.55 6.46L23.55 6.46L23.55 6.46Q23.98 6.78 24.09 7.18L24.09 7.18L24.09 7.18Q24.19 7.57 24.02 7.95L24.02 7.95L24.02 7.95Q23.84 8.33 23.44 8.50ZM27.55 3.72L27.55 3.72L27.55 7.27L27.55 7.27Q27.66 7.03 27.89 6.85L27.89 6.85L27.89 6.85Q28.11 6.66 28.38 6.55L28.38 6.55L28.38 6.55Q28.66 6.43 28.94 6.36L28.94 6.36L28.94 6.36Q29.23 6.29 29.48 6.27L29.48 6.27L29.48 6.27Q30.00 6.24 30.51 6.41L30.51 6.41L30.51 6.41Q31.01 6.58 31.43 7.01L31.43 7.01L31.43 7.01Q32.05 7.66 32.05 8.86L32.05 8.86L32.05 13.52L30.30 13.52L30.30 13.52Q30.30 13.30 30.30 12.90L30.30 12.90L30.30 12.90Q30.31 12.50 30.31 12.03L30.31 12.03L30.31 12.03Q30.31 11.56 30.31 11.05L30.31 11.05L30.31 11.05Q30.31 10.54 30.30 10.09L30.30 10.09L30.30 10.09Q30.28 9.63 30.25 9.28L30.25 9.28L30.25 9.28Q30.23 8.93 30.18 8.76L30.18 8.76L30.18 8.76Q30.07 8.34 29.78 8.12L29.78 8.12L29.78 8.12Q29.48 7.90 29.12 7.90L29.12 7.90L29.12 7.90Q28.64 7.90 28.38 8.15L28.38 8.15L28.38 8.15Q28.13 8.40 28.13 8.81L28.13 8.81L28.13 8.81Q27.97 8.76 27.80 8.60L27.80 8.60L27.80 8.60Q27.62 8.43 27.55 8.23L27.55 8.23L27.55 13.52L25.79 13.52L25.79 5.15L25.79 5.15Q25.79 4.48 26.26 4.10L26.26 4.10L26.26 4.10Q26.74 3.71 27.55 3.72ZM38.85 13.52L38.85 12.73L38.85 12.73Q38.32 13.24 37.69 13.48L37.69 13.48L37.69 13.48Q37.07 13.72 36.44 13.70L36.44 13.70L36.44 13.70Q35.81 13.68 35.22 13.41L35.22 13.41L35.22 13.41Q34.62 13.15 34.17 12.65L34.17 12.65L34.17 12.65Q33.71 12.15 33.44 11.46L33.44 11.46L33.44 11.46Q33.17 10.77 33.17 9.88L33.17 9.88L33.17 9.88Q33.17 9.04 33.46 8.33L33.46 8.33L33.46 8.33Q33.75 7.62 34.25 7.11L34.25 7.11L34.25 7.11Q34.75 6.61 35.38 6.34L35.38 6.34L35.38 6.34Q36.02 6.06 36.71 6.09L36.71 6.09L36.71 6.09Q37.38 6.12 37.79 6.39L37.79 6.39L37.79 6.39Q38.19 6.66 38.38 7.03L38.38 7.03L38.38 7.03Q38.57 7.39 38.58 7.76L38.58 7.76L38.58 7.76Q38.58 8.13 38.46 8.36L38.46 8.36L38.46 8.36Q38.22 8.01 37.79 7.89L37.79 7.89L37.79 7.89Q37.35 7.77 36.95 7.77L36.95 7.77L36.95 7.77Q36.30 7.77 35.87 8.09L35.87 8.09L35.87 8.09Q35.43 8.40 35.21 8.88L35.21 8.88L35.21 8.88Q34.99 9.35 34.98 9.91L34.98 9.91L34.98 9.91Q34.97 10.46 35.19 10.93L35.19 10.93L35.19 10.93Q35.41 11.41 35.85 11.73L35.85 11.73L35.85 11.73Q36.29 12.04 36.95 12.04L36.95 12.04L36.95 12.04Q37.51 12.04 37.87 11.79L37.87 11.79L37.87 11.79Q38.23 11.54 38.45 11.14L38.45 11.14L38.45 11.14Q38.67 10.74 38.76 10.24L38.76 10.24L38.76 10.24Q38.85 9.74 38.85 9.25L38.85 9.25L38.85 7.04L38.85 6.27L40.67 6.27L40.67 13.52L38.85 13.52ZM47.71 8.96L47.71 8.96L47.71 8.96Q47.60 8.57 47.28 8.30L47.28 8.30L47.28 8.30Q46.97 8.04 46.55 7.90L46.55 7.90L46.55 7.90Q46.13 7.77 45.65 7.78L45.65 7.78L45.65 7.78Q45.18 7.78 44.75 7.97L44.75 7.97L44.75 7.97Q44.32 8.15 44.00 8.51L44.00 8.51L44.00 8.51Q43.68 8.86 43.55 9.41L43.55 9.41L43.55 9.41Q43.46 9.86 43.53 10.32L43.53 10.32L43.53 10.32Q43.60 10.78 43.85 11.15L43.85 11.15L43.85 11.15Q44.10 11.52 44.53 11.76L44.53 11.76L44.53 11.76Q44.95 12.00 45.56 12.00L45.56 12.00L45.56 12.00Q46.69 12.00 47.32 11.17L47.32 11.17L48.65 12.14L48.65 12.14Q47.59 13.64 45.58 13.64L45.58 13.64L45.58 13.64Q44.53 13.64 43.77 13.24L43.77 13.24L43.77 13.24Q43.01 12.84 42.53 12.20L42.53 12.20L42.53 12.20Q42.06 11.56 41.89 10.77L41.89 10.77L41.89 10.77Q41.72 9.98 41.85 9.21L41.85 9.21L41.85 9.21Q41.99 8.43 42.43 7.74L42.43 7.74L42.43 7.74Q42.88 7.04 43.65 6.61L43.65 6.61L43.65 6.61Q44.23 6.29 44.88 6.17L44.88 6.17L44.88 6.17Q45.53 6.05 46.19 6.15L46.19 6.15L46.19 6.15Q47.05 6.27 47.54 6.66L47.54 6.66L47.54 6.66Q48.02 7.06 48.17 7.51L48.17 7.51L48.17 7.51Q48.33 7.97 48.20 8.38L48.20 8.38L48.20 8.38Q48.06 8.79 47.71 8.96ZM51.55 3.72L51.55 9.37L53.07 7.67L53.07 7.67Q53.54 7.15 53.98 6.83L53.98 6.83L53.98 6.83Q54.43 6.51 55.06 6.47L55.06 6.47L55.06 6.47Q55.37 6.45 55.65 6.52L55.65 6.52L55.65 6.52Q55.93 6.58 56.11 6.74L56.11 6.74L56.11 6.74Q56.29 6.90 56.35 7.15L56.35 7.15L56.35 7.15Q56.41 7.39 56.28 7.74L56.28 7.74L56.28 7.74Q56.22 7.64 56.08 7.61L56.08 7.61L56.08 7.61Q55.93 7.57 55.73 7.62L55.73 7.62L55.73 7.62Q55.52 7.66 55.29 7.79L55.29 7.79L55.29 7.79Q55.05 7.92 54.82 8.19L54.82 8.19L53.34 9.83L56.76 13.52L54.54 13.52L51.55 10.26L51.55 13.52L49.77 13.52L49.77 5.15L49.77 5.15Q49.77 4.48 50.25 4.10L50.25 4.10L50.25 4.10Q50.74 3.71 51.55 3.72L51.55 3.72Z"></path></g><!----><!----></svg>