<?xml version="1.0" encoding="UTF-8"?>
<svg xmlns="http://www.w3.org/2000/svg" xmlns:xlink="http://www.w3.org/1999/xlink" width="66pt" height="11pt" viewBox="0 0 66 11" version="1.1">
<defs>
<linearGradient id="linear0" gradientUnits="userSpaceOnUse" x1="0" y1="0" x2="1" y2="0" gradientTransform="matrix(59.70997,4.615509,-27.843216,9.89799,0.0234124,0.000000000000000306)">
<stop offset="0" style="stop-color:rgb(90.196078%,20.784314%,0%);stop-opacity:1;"/>
<stop offset="1" style="stop-color:rgb(100%,76.470588%,8.627451%);stop-opacity:1;"/>
</linearGradient>
</defs>
<g id="surface1">
<path style=" stroke:none;fill-rule:nonzero;fill:url(#linear0);" d="M 2.09375 0 L 2.09375 10.722656 L 0.0234375 10.722656 L 0.0234375 1.566406 C 0.0234375 1.074219 0.210938 0.691406 0.589844 0.414062 C 0.957031 0.132812 1.457031 -0.0078125 2.09375 0 Z M 7.875 2.605469 C 8.734375 2.605469 9.507812 2.800781 10.1875 3.195312 C 10.863281 3.582031 11.390625 4.074219 11.773438 4.671875 C 12.160156 5.277344 12.363281 5.949219 12.386719 6.6875 C 12.417969 7.421875 12.21875 8.140625 11.789062 8.839844 C 11.425781 9.425781 10.957031 9.890625 10.378906 10.242188 C 9.789062 10.585938 9.167969 10.800781 8.507812 10.886719 C 7.851562 10.976562 7.191406 10.925781 6.535156 10.734375 C 5.867188 10.546875 5.273438 10.207031 4.746094 9.71875 C 4.152344 9.15625 3.757812 8.503906 3.5625 7.769531 C 3.363281 7.03125 3.382812 6.300781 3.609375 5.570312 C 3.710938 5.269531 3.875 5.023438 4.101562 4.824219 C 4.320312 4.636719 4.574219 4.492188 4.867188 4.398438 C 5.148438 4.3125 5.441406 4.273438 5.746094 4.277344 C 6.054688 4.285156 6.335938 4.34375 6.605469 4.453125 C 6.871094 4.5625 7.09375 4.71875 7.273438 4.914062 C 7.453125 5.109375 7.5625 5.355469 7.59375 5.648438 C 7.425781 5.53125 7.230469 5.46875 7.003906 5.460938 C 6.769531 5.460938 6.546875 5.507812 6.332031 5.601562 C 6.125 5.699219 5.941406 5.847656 5.792969 6.050781 C 5.644531 6.25 5.570312 6.496094 5.570312 6.796875 C 5.570312 7.304688 5.683594 7.730469 5.910156 8.066406 C 6.144531 8.402344 6.4375 8.652344 6.78125 8.820312 C 7.125 8.988281 7.496094 9.070312 7.898438 9.070312 C 8.296875 9.070312 8.667969 8.984375 9.015625 8.808594 C 9.359375 8.640625 9.648438 8.386719 9.882812 8.042969 C 10.113281 7.699219 10.222656 7.273438 10.222656 6.761719 C 10.222656 6.359375 10.144531 6.007812 9.988281 5.703125 C 9.839844 5.394531 9.636719 5.144531 9.378906 4.945312 C 9.121094 4.75 8.824219 4.609375 8.484375 4.53125 C 8.140625 4.457031 7.777344 4.453125 7.390625 4.519531 C 7.226562 4.335938 7.027344 4.195312 6.792969 4.09375 C 6.558594 3.984375 6.304688 3.910156 6.03125 3.875 C 5.753906 3.835938 5.480469 3.839844 5.207031 3.886719 C 4.933594 3.9375 4.671875 4.027344 4.429688 4.15625 C 4.871094 3.671875 5.378906 3.289062 5.957031 3.019531 C 6.546875 2.742188 7.183594 2.605469 7.875 2.605469 Z M 16.160156 10.722656 L 12.527344 2.8125 L 14.714844 2.8125 L 16.851562 7.484375 L 18.460938 4.015625 C 18.574219 3.789062 18.710938 3.585938 18.875 3.402344 C 19.039062 3.214844 19.230469 3.058594 19.449219 2.933594 C 19.667969 2.808594 19.929688 2.726562 20.226562 2.691406 C 20.515625 2.65625 20.839844 2.675781 21.199219 2.746094 L 17.535156 10.722656 Z M 26.75 5.230469 C 26.65625 5.035156 26.53125 4.875 26.382812 4.757812 C 26.226562 4.644531 26.058594 4.554688 25.878906 4.496094 C 25.699219 4.433594 25.523438 4.398438 25.347656 4.398438 C 25.183594 4.390625 25.046875 4.40625 24.9375 4.441406 C 24.734375 4.507812 24.605469 4.613281 24.550781 4.757812 C 24.488281 4.90625 24.515625 5.046875 24.632812 5.1875 C 24.734375 5.289062 24.890625 5.386719 25.101562 5.484375 C 25.320312 5.578125 25.5625 5.683594 25.820312 5.800781 C 26.085938 5.917969 26.355469 6.050781 26.632812 6.203125 C 26.910156 6.351562 27.171875 6.523438 27.40625 6.730469 C 27.632812 6.933594 27.820312 7.175781 27.96875 7.453125 C 28.117188 7.730469 28.191406 8.054688 28.191406 8.425781 C 28.191406 8.871094 28.089844 9.257812 27.875 9.585938 C 27.671875 9.921875 27.398438 10.191406 27.054688 10.394531 C 26.703125 10.601562 26.308594 10.738281 25.878906 10.8125 C 25.449219 10.890625 25.007812 10.898438 24.5625 10.832031 C 24.113281 10.773438 23.683594 10.636719 23.269531 10.417969 C 22.851562 10.199219 22.492188 9.898438 22.1875 9.519531 L 23.503906 8.195312 C 23.777344 8.503906 24.0625 8.722656 24.363281 8.863281 C 24.667969 8.996094 24.949219 9.066406 25.207031 9.082031 C 25.46875 9.097656 25.683594 9.0625 25.855469 8.972656 C 26.027344 8.886719 26.132812 8.769531 26.171875 8.621094 C 26.210938 8.476562 26.164062 8.3125 26.03125 8.132812 C 25.90625 7.957031 25.65625 7.78125 25.277344 7.605469 C 24.925781 7.4375 24.582031 7.269531 24.246094 7.101562 C 23.914062 6.925781 23.621094 6.730469 23.363281 6.511719 C 23.105469 6.300781 22.898438 6.0625 22.742188 5.800781 C 22.578125 5.53125 22.492188 5.21875 22.492188 4.859375 C 22.492188 4.492188 22.578125 4.167969 22.742188 3.886719 C 22.902344 3.59375 23.125 3.351562 23.398438 3.160156 C 23.671875 2.964844 23.988281 2.824219 24.339844 2.738281 C 24.691406 2.640625 25.054688 2.597656 25.429688 2.605469 C 26.066406 2.640625 26.546875 2.773438 26.878906 3 C 27.214844 3.230469 27.425781 3.492188 27.511719 3.785156 C 27.589844 4.070312 27.5625 4.351562 27.429688 4.628906 C 27.289062 4.90625 27.0625 5.105469 26.75 5.230469 Z M 31.578125 0 L 31.578125 3.886719 C 31.664062 3.710938 31.796875 3.554688 31.976562 3.425781 C 32.148438 3.285156 32.34375 3.175781 32.554688 3.097656 C 32.773438 3.007812 32.992188 2.941406 33.210938 2.890625 C 33.4375 2.839844 33.652344 2.804688 33.847656 2.789062 C 34.253906 2.769531 34.65625 2.820312 35.058594 2.945312 C 35.449219 3.070312 35.808594 3.285156 36.136719 3.601562 C 36.625 4.074219 36.867188 4.75 36.867188 5.625 L 36.867188 10.722656 L 34.808594 10.722656 C 34.808594 10.5625 34.808594 10.335938 34.808594 10.046875 C 34.816406 9.753906 34.820312 9.4375 34.820312 9.09375 C 34.820312 8.75 34.820312 8.394531 34.820312 8.019531 C 34.820312 7.648438 34.816406 7.300781 34.808594 6.96875 C 34.792969 6.636719 34.773438 6.339844 34.75 6.085938 C 34.734375 5.828125 34.707031 5.640625 34.667969 5.515625 C 34.582031 5.207031 34.425781 4.976562 34.199219 4.816406 C 33.964844 4.65625 33.707031 4.574219 33.421875 4.574219 C 33.046875 4.574219 32.757812 4.664062 32.554688 4.847656 C 32.355469 5.03125 32.257812 5.269531 32.257812 5.570312 C 32.132812 5.535156 32.003906 5.457031 31.871094 5.339844 C 31.730469 5.21875 31.632812 5.082031 31.578125 4.9375 L 31.578125 10.722656 L 29.507812 10.722656 L 29.507812 1.566406 C 29.507812 1.074219 29.695312 0.691406 30.0625 0.414062 C 30.4375 0.132812 30.941406 -0.0078125 31.578125 0 Z M 44.859375 10.722656 L 44.859375 9.859375 C 44.441406 10.230469 43.988281 10.503906 43.496094 10.679688 C 43.007812 10.855469 42.519531 10.933594 42.023438 10.921875 C 41.53125 10.90625 41.054688 10.800781 40.589844 10.601562 C 40.121094 10.414062 39.710938 10.136719 39.359375 9.769531 C 38.996094 9.40625 38.710938 8.972656 38.5 8.46875 C 38.289062 7.964844 38.183594 7.390625 38.183594 6.742188 C 38.183594 6.128906 38.296875 5.5625 38.523438 5.042969 C 38.75 4.527344 39.058594 4.082031 39.453125 3.710938 C 39.84375 3.34375 40.285156 3.0625 40.78125 2.867188 C 41.28125 2.664062 41.800781 2.570312 42.34375 2.59375 C 42.867188 2.617188 43.289062 2.726562 43.613281 2.921875 C 43.925781 3.121094 44.15625 3.351562 44.304688 3.621094 C 44.453125 3.886719 44.535156 4.152344 44.539062 4.421875 C 44.539062 4.691406 44.492188 4.910156 44.398438 5.078125 C 44.210938 4.820312 43.949219 4.652344 43.613281 4.5625 C 43.269531 4.476562 42.9375 4.433594 42.625 4.433594 C 42.117188 4.433594 41.691406 4.550781 41.355469 4.78125 C 41.011719 5.007812 40.753906 5.296875 40.582031 5.648438 C 40.40625 5.988281 40.316406 6.367188 40.308594 6.773438 C 40.300781 7.175781 40.382812 7.546875 40.558594 7.890625 C 40.730469 8.238281 40.988281 8.53125 41.332031 8.765625 C 41.675781 8.992188 42.109375 9.105469 42.625 9.105469 C 43.0625 9.105469 43.425781 9.015625 43.707031 8.832031 C 43.988281 8.648438 44.214844 8.410156 44.386719 8.121094 C 44.5625 7.828125 44.683594 7.5 44.753906 7.136719 C 44.824219 6.769531 44.859375 6.410156 44.859375 6.050781 L 44.859375 2.789062 L 46.996094 2.789062 L 46.996094 10.722656 Z M 55.269531 5.734375 C 55.183594 5.449219 55.015625 5.207031 54.765625 5.011719 C 54.523438 4.820312 54.234375 4.675781 53.90625 4.574219 C 53.578125 4.480469 53.226562 4.4375 52.847656 4.441406 C 52.480469 4.441406 52.128906 4.511719 51.792969 4.652344 C 51.453125 4.78125 51.160156 4.980469 50.910156 5.242188 C 50.660156 5.496094 50.484375 5.824219 50.382812 6.226562 C 50.3125 6.554688 50.300781 6.886719 50.359375 7.222656 C 50.414062 7.558594 50.539062 7.859375 50.734375 8.132812 C 50.929688 8.402344 51.195312 8.621094 51.535156 8.796875 C 51.863281 8.972656 52.265625 9.0625 52.742188 9.0625 C 53.628906 9.0625 54.316406 8.757812 54.8125 8.152344 L 56.375 9.214844 C 55.542969 10.308594 54.339844 10.855469 52.765625 10.855469 C 51.945312 10.855469 51.234375 10.710938 50.640625 10.417969 C 50.042969 10.125 49.558594 9.746094 49.183594 9.28125 C 48.816406 8.8125 48.5625 8.289062 48.429688 7.714844 C 48.296875 7.136719 48.28125 6.570312 48.382812 6.007812 C 48.492188 5.4375 48.71875 4.902344 49.066406 4.398438 C 49.417969 3.886719 49.894531 3.476562 50.5 3.160156 C 50.953125 2.929688 51.4375 2.769531 51.945312 2.679688 C 52.453125 2.59375 52.96875 2.585938 53.484375 2.660156 C 54.15625 2.746094 54.6875 2.933594 55.070312 3.21875 C 55.445312 3.507812 55.691406 3.820312 55.8125 4.148438 C 55.9375 4.484375 55.949219 4.800781 55.84375 5.101562 C 55.738281 5.398438 55.542969 5.609375 55.269531 5.734375 Z M 59.78125 0 L 59.78125 6.183594 L 61.570312 4.324219 C 61.9375 3.941406 62.292969 3.636719 62.640625 3.402344 C 62.992188 3.171875 63.414062 3.039062 63.90625 3.007812 C 64.152344 2.996094 64.382812 3.011719 64.601562 3.0625 C 64.820312 3.109375 65 3.1875 65.140625 3.304688 C 65.285156 3.421875 65.378906 3.570312 65.425781 3.753906 C 65.472656 3.929688 65.441406 4.144531 65.339844 4.398438 C 65.292969 4.324219 65.214844 4.277344 65.105469 4.257812 C 64.988281 4.226562 64.851562 4.230469 64.695312 4.269531 C 64.53125 4.296875 64.359375 4.359375 64.179688 4.453125 C 63.992188 4.550781 63.804688 4.695312 63.625 4.890625 L 61.886719 6.6875 L 65.90625 10.722656 L 63.296875 10.722656 L 59.78125 7.15625 L 59.78125 10.722656 L 57.691406 10.722656 L 57.691406 1.566406 C 57.691406 1.074219 57.878906 0.691406 58.253906 0.414062 C 58.636719 0.132812 59.148438 -0.0078125 59.78125 0 Z M 59.78125 0 "/>
</g>
</svg>
