<?xml version="1.0" encoding="UTF-8"?>
<svg xmlns="http://www.w3.org/2000/svg" xmlns:xlink="http://www.w3.org/1999/xlink" width="187pt" height="31pt" viewBox="0 0 187 31" version="1.1">
<defs>
<linearGradient id="linear0" gradientUnits="userSpaceOnUse" x1="0" y1="0" x2="1" y2="0" gradientTransform="matrix(169.359187,13.091261,-78.973486,28.0743,0.0664062,0.000000000000000868)">
<stop offset="0" style="stop-color:rgb(90.196078%,20.784314%,0%);stop-opacity:1;"/>
<stop offset="1" style="stop-color:rgb(100%,76.470588%,8.627451%);stop-opacity:1;"/>
</linearGradient>
</defs>
<g id="surface1">
<path style=" stroke:none;fill-rule:nonzero;fill:url(#linear0);" d="M 5.933594 0 L 5.933594 30.417969 L 0.0664062 30.417969 L 0.0664062 4.4375 C 0.0664062 3.050781 0.601562 1.964844 1.667969 1.179688 C 2.710938 0.375 4.132812 -0.0195312 5.933594 0 Z M 22.332031 7.386719 C 24.777344 7.386719 26.964844 7.945312 28.898438 9.0625 C 30.8125 10.160156 32.3125 11.558594 33.398438 13.253906 C 34.488281 14.972656 35.066406 16.875 35.132812 18.964844 C 35.222656 21.054688 34.65625 23.09375 33.433594 25.078125 C 32.410156 26.734375 31.078125 28.058594 29.433594 29.050781 C 27.765625 30.023438 26 30.632812 24.132812 30.882812 C 22.265625 31.128906 20.398438 30.984375 18.535156 30.449219 C 16.644531 29.910156 14.957031 28.949219 13.464844 27.5625 C 11.777344 25.96875 10.65625 24.125 10.101562 22.035156 C 9.542969 19.945312 9.589844 17.867188 10.234375 15.796875 C 10.523438 14.949219 10.988281 14.246094 11.632812 13.6875 C 12.253906 13.148438 12.976562 12.746094 13.800781 12.476562 C 14.601562 12.230469 15.433594 12.117188 16.300781 12.136719 C 17.167969 12.15625 17.976562 12.324219 18.734375 12.632812 C 19.488281 12.941406 20.121094 13.378906 20.632812 13.9375 C 21.144531 14.496094 21.445312 15.1875 21.535156 16.015625 C 21.066406 15.683594 20.511719 15.507812 19.867188 15.488281 C 19.199219 15.488281 18.566406 15.621094 17.964844 15.890625 C 17.367188 16.160156 16.855469 16.585938 16.433594 17.164062 C 16.011719 17.722656 15.800781 18.425781 15.800781 19.273438 C 15.800781 20.722656 16.121094 21.921875 16.765625 22.875 C 17.433594 23.828125 18.253906 24.539062 19.234375 25.015625 C 20.210938 25.492188 21.265625 25.730469 22.398438 25.730469 C 23.535156 25.730469 24.589844 25.480469 25.566406 24.984375 C 26.542969 24.507812 27.367188 23.785156 28.035156 22.8125 C 28.679688 21.839844 29 20.628906 29 19.179688 C 29 18.042969 28.777344 17.039062 28.332031 16.171875 C 27.910156 15.300781 27.332031 14.589844 26.601562 14.03125 C 25.867188 13.472656 25.023438 13.078125 24.066406 12.851562 C 23.089844 12.644531 22.054688 12.632812 20.964844 12.820312 C 20.5 12.300781 19.933594 11.898438 19.265625 11.609375 C 18.601562 11.296875 17.878906 11.089844 17.101562 10.988281 C 16.324219 10.882812 15.542969 10.894531 14.765625 11.019531 C 13.988281 11.164062 13.253906 11.421875 12.566406 11.792969 C 13.8125 10.410156 15.253906 9.332031 16.898438 8.566406 C 18.566406 7.78125 20.378906 7.386719 22.332031 7.386719 Z M 45.832031 30.417969 L 35.535156 7.976562 L 41.734375 7.976562 L 47.800781 21.230469 L 52.367188 11.390625 C 52.679688 10.75 53.066406 10.171875 53.535156 9.652344 C 54 9.117188 54.542969 8.671875 55.167969 8.320312 C 55.789062 7.96875 56.523438 7.738281 57.367188 7.636719 C 58.1875 7.53125 59.109375 7.585938 60.132812 7.789062 L 49.734375 30.417969 Z M 75.867188 14.835938 C 75.601562 14.277344 75.253906 13.832031 74.832031 13.5 C 74.390625 13.171875 73.910156 12.921875 73.398438 12.757812 C 72.890625 12.570312 72.390625 12.476562 71.898438 12.476562 C 71.433594 12.457031 71.042969 12.5 70.734375 12.601562 C 70.15625 12.789062 69.789062 13.089844 69.632812 13.5 C 69.457031 13.914062 69.535156 14.320312 69.867188 14.710938 C 70.15625 15 70.601562 15.28125 71.199219 15.550781 C 71.820312 15.820312 72.5 16.121094 73.234375 16.449219 C 73.988281 16.78125 74.753906 17.164062 75.535156 17.597656 C 76.332031 18.011719 77.066406 18.507812 77.734375 19.089844 C 78.378906 19.667969 78.910156 20.351562 79.332031 21.136719 C 79.753906 21.921875 79.964844 22.84375 79.964844 23.898438 C 79.964844 25.160156 79.667969 26.257812 79.066406 27.1875 C 78.488281 28.140625 77.710938 28.90625 76.734375 29.484375 C 75.734375 30.066406 74.621094 30.457031 73.398438 30.664062 C 72.179688 30.894531 70.933594 30.914062 69.667969 30.726562 C 68.398438 30.5625 67.179688 30.167969 66 29.546875 C 64.820312 28.925781 63.800781 28.078125 62.933594 27.003906 L 66.667969 23.246094 C 67.445312 24.117188 68.253906 24.746094 69.101562 25.140625 C 69.964844 25.511719 70.765625 25.71875 71.5 25.761719 C 72.234375 25.800781 72.84375 25.699219 73.332031 25.449219 C 73.820312 25.203125 74.121094 24.871094 74.234375 24.457031 C 74.34375 24.042969 74.210938 23.578125 73.832031 23.0625 C 73.476562 22.566406 72.765625 22.066406 71.699219 21.570312 C 70.699219 21.09375 69.722656 20.621094 68.765625 20.144531 C 67.832031 19.648438 67 19.089844 66.265625 18.46875 C 65.535156 17.867188 64.945312 17.195312 64.5 16.449219 C 64.035156 15.683594 63.800781 14.796875 63.800781 13.78125 C 63.800781 12.746094 64.035156 11.824219 64.5 11.019531 C 64.964844 10.191406 65.589844 9.507812 66.367188 8.96875 C 67.144531 8.410156 68.035156 8.007812 69.035156 7.761719 C 70.035156 7.492188 71.066406 7.367188 72.132812 7.386719 C 73.933594 7.492188 75.300781 7.863281 76.234375 8.503906 C 77.1875 9.167969 77.789062 9.910156 78.035156 10.738281 C 78.253906 11.546875 78.179688 12.34375 77.800781 13.128906 C 77.398438 13.914062 76.753906 14.484375 75.867188 14.835938 Z M 89.566406 0 L 89.566406 11.019531 C 89.8125 10.523438 90.1875 10.085938 90.699219 9.714844 C 91.1875 9.320312 91.734375 9.011719 92.332031 8.785156 C 92.957031 8.535156 93.578125 8.339844 94.199219 8.195312 C 94.84375 8.050781 95.445312 7.957031 96 7.914062 C 97.15625 7.851562 98.300781 7.996094 99.433594 8.351562 C 100.542969 8.703125 101.566406 9.320312 102.5 10.210938 C 103.878906 11.558594 104.566406 13.472656 104.566406 15.953125 L 104.566406 30.417969 L 98.734375 30.417969 C 98.734375 29.960938 98.734375 29.320312 98.734375 28.492188 C 98.753906 27.664062 98.765625 26.765625 98.765625 25.792969 C 98.765625 24.820312 98.765625 23.804688 98.765625 22.75 C 98.765625 21.695312 98.753906 20.703125 98.734375 19.769531 C 98.6875 18.820312 98.632812 17.980469 98.566406 17.257812 C 98.523438 16.53125 98.445312 15.996094 98.332031 15.644531 C 98.089844 14.773438 97.644531 14.113281 97 13.65625 C 96.332031 13.203125 95.601562 12.972656 94.800781 12.972656 C 93.734375 12.972656 92.910156 13.234375 92.332031 13.75 C 91.777344 14.265625 91.5 14.949219 91.5 15.796875 C 91.144531 15.695312 90.777344 15.476562 90.398438 15.148438 C 90 14.796875 89.722656 14.414062 89.566406 14 L 89.566406 30.417969 L 83.699219 30.417969 L 83.699219 4.4375 C 83.699219 3.050781 84.222656 1.964844 85.265625 1.179688 C 86.332031 0.375 87.765625 -0.0195312 89.566406 0 Z M 127.234375 30.417969 L 127.234375 27.964844 C 126.054688 29.019531 124.765625 29.796875 123.367188 30.292969 C 121.988281 30.789062 120.601562 31.015625 119.199219 30.976562 C 117.800781 30.933594 116.445312 30.632812 115.132812 30.074219 C 113.800781 29.539062 112.632812 28.75 111.632812 27.714844 C 110.609375 26.683594 109.800781 25.449219 109.199219 24.023438 C 108.601562 22.59375 108.300781 20.960938 108.300781 19.121094 C 108.300781 17.382812 108.621094 15.777344 109.265625 14.308594 C 109.910156 12.839844 110.789062 11.578125 111.898438 10.523438 C 113.011719 9.488281 114.265625 8.691406 115.667969 8.132812 C 117.089844 7.554688 118.566406 7.292969 120.101562 7.355469 C 121.589844 7.417969 122.789062 7.730469 123.699219 8.289062 C 124.589844 8.847656 125.246094 9.507812 125.667969 10.273438 C 126.089844 11.019531 126.3125 11.773438 126.332031 12.539062 C 126.332031 13.304688 126.199219 13.925781 125.933594 14.402344 C 125.398438 13.675781 124.65625 13.191406 123.699219 12.941406 C 122.722656 12.695312 121.789062 12.570312 120.898438 12.570312 C 119.457031 12.570312 118.253906 12.902344 117.300781 13.5625 C 116.320312 14.207031 115.589844 15.023438 115.101562 16.015625 C 114.609375 16.988281 114.355469 18.054688 114.332031 19.210938 C 114.3125 20.351562 114.542969 21.40625 115.035156 22.378906 C 115.523438 23.371094 116.253906 24.199219 117.234375 24.859375 C 118.210938 25.503906 119.433594 25.824219 120.898438 25.824219 C 122.144531 25.824219 123.167969 25.566406 123.964844 25.046875 C 124.765625 24.53125 125.410156 23.859375 125.898438 23.03125 C 126.390625 22.203125 126.734375 21.269531 126.933594 20.238281 C 127.132812 19.203125 127.234375 18.179688 127.234375 17.164062 L 127.234375 7.914062 L 133.300781 7.914062 L 133.300781 30.417969 Z M 156.765625 16.265625 C 156.523438 15.457031 156.042969 14.773438 155.332031 14.214844 C 154.644531 13.675781 153.832031 13.265625 152.898438 12.972656 C 151.964844 12.707031 150.964844 12.582031 149.898438 12.601562 C 148.855469 12.601562 147.855469 12.796875 146.898438 13.191406 C 145.945312 13.5625 145.109375 14.121094 144.398438 14.867188 C 143.6875 15.589844 143.1875 16.523438 142.898438 17.660156 C 142.699219 18.59375 142.675781 19.535156 142.832031 20.484375 C 142.988281 21.4375 143.34375 22.296875 143.898438 23.0625 C 144.457031 23.828125 145.210938 24.457031 146.167969 24.953125 C 147.101562 25.449219 148.246094 25.699219 149.601562 25.699219 C 152.109375 25.699219 154.066406 24.839844 155.464844 23.125 L 159.898438 26.132812 C 157.542969 29.238281 154.132812 30.789062 149.667969 30.789062 C 147.332031 30.789062 145.320312 30.375 143.632812 29.546875 C 141.945312 28.71875 140.566406 27.644531 139.5 26.320312 C 138.457031 24.996094 137.746094 23.515625 137.367188 21.882812 C 136.988281 20.246094 136.945312 18.632812 137.234375 17.039062 C 137.542969 15.425781 138.1875 13.90625 139.167969 12.476562 C 140.167969 11.027344 141.523438 9.859375 143.234375 8.96875 C 144.523438 8.308594 145.890625 7.851562 147.332031 7.605469 C 148.777344 7.355469 150.234375 7.335938 151.699219 7.542969 C 153.609375 7.789062 155.109375 8.320312 156.199219 9.125 C 157.265625 9.953125 157.964844 10.832031 158.300781 11.765625 C 158.65625 12.714844 158.6875 13.617188 158.398438 14.464844 C 158.089844 15.3125 157.542969 15.914062 156.765625 16.265625 Z M 169.566406 0 L 169.566406 17.535156 L 174.632812 12.261719 C 175.675781 11.183594 176.6875 10.316406 177.667969 9.652344 C 178.667969 8.992188 179.867188 8.617188 181.265625 8.535156 C 181.957031 8.496094 182.609375 8.546875 183.234375 8.691406 C 183.855469 8.816406 184.367188 9.042969 184.765625 9.375 C 185.167969 9.703125 185.433594 10.128906 185.566406 10.644531 C 185.699219 11.144531 185.621094 11.753906 185.332031 12.476562 C 185.199219 12.269531 184.976562 12.136719 184.667969 12.074219 C 184.332031 11.992188 183.945312 12 183.5 12.105469 C 183.035156 12.1875 182.542969 12.363281 182.035156 12.632812 C 181.5 12.902344 180.976562 13.316406 180.464844 13.875 L 175.535156 18.964844 L 186.933594 30.417969 L 179.535156 30.417969 L 169.566406 20.300781 L 169.566406 30.417969 L 163.632812 30.417969 L 163.632812 4.4375 C 163.632812 3.050781 164.167969 1.964844 165.234375 1.179688 C 166.320312 0.375 167.765625 -0.0195312 169.566406 0 Z M 169.566406 0 "/>
</g>
</svg>
